<?xml version="1.0" encoding="UTF-8"?>
<svg xmlns="http://www.w3.org/2000/svg" width="177" height="55.25" xmlns:xlink="http://www.w3.org/1999/xlink" viewBox="0 0 177 55.25">
  <defs>
    <style>
      .h {
        isolation: isolate;
      }

      .i {
        fill: #fff;
        mix-blend-mode: overlay;
        opacity: .3;
      }

      .j {
        fill: url(#f);
      }

      .k {
        fill: #d98921;
      }

      .l {
        fill: url(#g);
      }

      .m {
        fill: url(#e);
      }

      .n {
        fill: #231f20;
      }
    </style>
    <linearGradient id="e" x1="88.5" y1="54.06" x2="88.5" y2="39.93" gradientTransform="matrix(1, 0, 0, 1, 0, 0)" gradientUnits="userSpaceOnUse">
      <stop offset=".5" stop-color="#f9f1a7"/>
      <stop offset=".5" stop-color="#f9f5e3"/>
    </linearGradient>
    <linearGradient id="f" x1="88.5" y1="8.34" x2="88.5" y2="0" xlink:href="#e"/>
    <linearGradient id="g" x1="88.5" y1="11.16" x2="88.5" y2="34" gradientTransform="matrix(1, 0, 0, 1, 0, 0)" gradientUnits="userSpaceOnUse">
      <stop offset="0" stop-color="#ffb11b"/>
      <stop offset=".5" stop-color="#ff9f0e"/>
      <stop offset=".5" stop-color="#ff8c0c"/>
      <stop offset=".88" stop-color="#ff7300"/>
    </linearGradient>
  </defs>
  <g style="isolation: isolate;">
    <g id="a" data-name="Layer 1"/>
    <g id="b" data-name="Layer 2">
      <g id="c" data-name="top">
        <g id="d" data-name="logo">
          <path d="M66.93,47.19h-.39l-3.51-6.07h-5.2v14.1h4.05v-7.43h.45l4.42,7.43,4.41-7.43h.4v7.43h4.06v-14.1h-5.19l-3.49,6.07Zm38.32-6.07v14.13h4.06v-4.47l.22-.22h1.84l.18,.1,3.11,4.59h4.33l-2.86-4.3v-.21l.18-.12,1.12-.12,1.78-1.68v-6.34l-1.41-1.36h-12.55Zm9.82,6.08l-.37,.37h-5.18l-.21-.22v-2.92l.23-.23h5.12l.4,.45v2.55Zm-73.59,8.02h12.45v-3.22h-8.2l-.22-.23v-1.89l.23-.23,7.2-.02v-3.12h-7.19l-.23-.23v-1.92l.23-.23h8.19v-3.03h-12.45v14.1Zm85.68-3.45v-1.88l.24-.22h7.09v-3.12h-7.09l-.26-.35v-1.83l.26-.23h8.12v-3.03h-12.39v14.1h12.4v-3.22h-8.13l-.24-.23Zm-47.65-10.66v14.13h4.03v-4.28l.23-.23h8.03l1.68-1.48v-6.81l-1.47-1.34h-12.49Zm9.84,6.07l-.82,.48h-4.72l-.23-.23v-3.04l.23-.23h4.82l.71,.53v2.49Zm8.03-6.07h3.97v14.1h-3.97v-14.1Z" style="fill: #231f20;"/>
          <path d="M66.93,46.59h-.39l-3.51-6.07h-5.2v14.1h4.05v-7.43h.45l4.42,7.43,4.41-7.43h.4v7.43h4.06v-14.1h-5.19l-3.49,6.07Zm38.32-6.07v14.13h4.06v-4.47l.22-.22h1.84l.18,.1,3.11,4.59h4.33l-2.86-4.3v-.21l.18-.12,1.12-.12,1.78-1.68v-6.34l-1.41-1.36h-12.55Zm9.82,6.08l-.37,.37h-5.18l-.21-.22v-2.92l.23-.23h5.12l.4,.45v2.55Zm-73.59,8.02h12.45v-3.22h-8.2l-.22-.23v-1.89l.23-.23,7.2-.02v-3.12h-7.19l-.23-.23v-1.92l.23-.23h8.19v-3.03h-12.45v14.1Zm85.68-3.45v-1.88l.24-.22h7.09v-3.12h-7.09l-.26-.35v-1.83l.26-.23h8.12v-3.03h-12.39v14.1h12.4v-3.22h-8.13l-.24-.23Zm-47.65-10.66v14.13h4.03v-4.28l.23-.23h8.03l1.68-1.48v-6.81l-1.47-1.34h-12.49Zm9.84,6.07l-.82,.48h-4.72l-.23-.23v-3.04l.23-.23h4.82l.71,.53v2.49Zm8.03-6.07h3.97v14.1h-3.97v-14.1Z" style="fill: #d98921;"/>
          <path d="M66.93,46h-.39l-3.51-6.07h-5.2v14.1h4.05v-7.43h.45l4.42,7.43,4.41-7.43h.4v7.43h4.06v-14.1h-5.19l-3.49,6.07Zm38.32-6.07v14.13h4.06v-4.47l.22-.22h1.84l.18,.1,3.11,4.59h4.33l-2.86-4.3v-.21l.18-.12,1.12-.12,1.78-1.68v-6.34l-1.41-1.36h-12.55Zm9.82,6.08l-.37,.37h-5.18l-.21-.22v-2.92l.23-.23h5.12l.4,.45v2.55Zm-73.59,8.02h12.45v-3.22h-8.2l-.22-.23v-1.89l.23-.23,7.2-.02v-3.12h-7.19l-.23-.23v-1.92l.23-.23h8.19v-3.03h-12.45v14.1Zm85.68-3.45v-1.88l.24-.22h7.09v-3.12h-7.09l-.26-.35v-1.83l.26-.23h8.12v-3.03h-12.39v14.1h12.4v-3.22h-8.13l-.24-.23Zm-47.65-10.66v14.13h4.03v-4.28l.23-.23h8.03l1.68-1.48v-6.81l-1.47-1.34h-12.49Zm9.84,6.07l-.82,.48h-4.72l-.23-.23v-3.04l.23-.23h4.82l.71,.53v2.49Zm8.03-6.07h3.97v14.1h-3.97v-14.1Z" style="fill: url(#e);"/>
          <path d="M86.89,9.53h18.1l6.67-6.74h-11.61l.33,2.76h-4.73l1.28-4.35h-16.73l.24,4.35h-6.05l.24-3.51h-9.3l4.87,7.49h16.68Z" style="fill: #231f20;"/>
          <path d="M86.89,8.93h18.1l6.67-6.74h-11.61l.33,2.76h-4.73l1.28-4.35h-16.73l.24,4.35h-6.05l.24-3.51h-9.3l4.87,7.49h16.68Z" style="fill: #d98921;"/>
          <path d="M86.89,8.34h18.1l6.67-6.74h-11.61l.33,2.76h-4.73l1.28-4.35h-16.73l.24,4.35h-6.05l.24-3.51h-9.3l4.87,7.49h16.68Z" style="fill: url(#f);"/>
          <path d="M128.8,27.45l-.35-9.98,10.11-.16,.7,2.76h-7.35l-.1,4.59,17.05,.78-4.35-14.32h-12.83l-4.1,2.95-1.57-2.95h-6.55l2.05,22.87h18.84l4.35-5.79-15.92-.75Zm38.64-16.33l-2.6,9.23h-4.19l-2.3-9.23h-10.38l3.15,13.21,13.44,1.88-.74,1.81-15.99,1.51-3.93,4.46h25.52l7.57-22.87h-9.56Zm-150.2,.05l-1.63,8.8-5.92-8.85L0,11.17l5.16,22.82h6.48l-1.09-11.64,6.68,7.83,2.89-8.35,2.93,12.16h7.49l-3.59-22.87-9.73,.05Zm67.87,0h-8.92l.86,10.68-8.61-10.72h-7.76l-2.92,22.87h8.53l1.27-11.41,10.03,11.41h9.46l-1.94-22.82Zm-54.47-.05l2.74,22.87h20.63l3.4-22.87H30.64Zm16.47,16.63h-6.53l-.45-10.75h7.78l-.79,10.75ZM117.83,11.12h-11.85l-1.58,6.48-5.51,1.84,.14-8.26h-10.68l2.76,22.82h7.54l.12-7.08,4.78-1.8,4.24,8.88h12.13l-8.86-12.33,6.77-10.54Z" style="fill: url(#g);"/>
          <path d="M99.5,19.23l4.9-1.63,1.58-6.48h11.85l-.38,.59h-10.87l-1.58,6.48-5.51,1.84v-.8ZM.59,11.76l9.49-.05-.4-.59-9.68,.05,5.16,22.82h.46L.59,11.76Zm77.05,10.68l-.86-10.68h8.38l-.05-.59h-8.92l.85,10.51,.61,.76Zm-61.45-1.87l1.63-8.8,9.22-.05-.09-.6-9.73,.05-1.59,8.57,.55,.82Zm135.4,3.83l-3.03-12.68h9.94l-.15-.59h-10.38l3.15,13.21,.47,.07ZM11.14,22.95v.11l6.09,7.12,.03-.07-6.11-7.16Zm150.1-2.01h4.19l2.6-9.23h8.77l.2-.59h-9.56l-2.6,9.23h-3.74l.15,.59Zm-22.54-3.03l.55,2.16h-7.35l-.1,4.59,.61,.03,.08-4.02h7.35l-.7-2.76h-.44Zm-10.53-3.24l4.1-2.95h12.42l-.18-.59h-12.83l-3.9,2.81,.39,.74Zm1.19,12.81l.02,.57,14.91,.7,.41-.55-15.34-.72ZM20.72,22.43l-.27,.77,2.61,10.8h.45l-2.79-11.57ZM120.06,11.72h6.27l-.32-.59h-6.55l2.05,22.87h.54l-2-22.28Zm28.37,18.42l15.99-1.52,.74-1.81-.79-.11-.54,1.33-15.99,1.52-3.93,4.46h1.12l3.4-3.86ZM88.95,11.76h10.08v-.59h-10.67l2.76,22.82h.52l-2.68-22.23Zm15.2,13.95l-.26,.1,3.91,8.18h.31l-3.96-8.28ZM31.23,11.72h26.1l.09-.59H30.64l2.74,22.87h.52l-2.67-22.28Zm16.47,16.63l.79-10.75h-.64l-.75,10.15h-5.97l.02,.59h6.53Zm13.57-16.63h7.64l-.48-.59h-7.76l-2.92,22.87h.67l2.85-22.28Zm6.87,11.46v.07l9.44,10.75h.07l-9.51-10.82Z" style="fill: #fff; mix-blend-mode: overlay; opacity: .3;"/>
        </g>
      </g>
    </g>
  </g>
</svg>